<svg xmlns="http://www.w3.org/2000/svg" width="93.512" height="56.229" viewBox="0 0 93.512 56.229"><defs><style>.a{fill:#5da60e;}</style></defs><g transform="translate(-272.685 -78.537)"><path class="a" d="M365.166,217.421c.366.731,1.069,1.48,1.03,2.188-.084,1.516-1.425,1.321-2.5,1.321q-31.8,0-63.6,0-12.395,0-24.79-.007c-.54,0-1.2.13-1.587-.129a2.424,2.424,0,0,1-1.032-1.516,1.828,1.828,0,0,1,.887-1.374c.294-.166.905.274,1.388.385a11.2,11.2,0,0,0,2.443.47q41.147.035,82.294.018a21.977,21.977,0,0,0,2.84-.027,9.787,9.787,0,0,0,2-.709Z" transform="translate(0 -95.084)"/><g transform="translate(279.415 88.091)"><path class="a" d="M414.368,113.584c-.28,0-.558,0-.836,0l.027.013C413.829,113.594,414.1,113.585,414.368,113.584Z" transform="translate(-375.843 -112.084)"/><path class="a" d="M373.855,140.149c-1.373-9.535-6.3-16.937-13.8-22.731-18.241-14.081-48.427-11.09-61.741,10.8a30,30,0,0,0-4.288,14.425h80.054C374,141.724,373.968,140.93,373.855,140.149Zm-56.1-3.52a5.95,5.95,0,0,1-2.045,1.818,5.446,5.446,0,0,1-2.7.682,6.177,6.177,0,0,1-4.375-1.818,5.841,5.841,0,0,1-1.35-1.989,6.2,6.2,0,0,1-.469-2.387v-1.165H309.2v1.165a3.65,3.65,0,0,0,.511,1.889,3.952,3.952,0,0,0,1.378,1.392,3.57,3.57,0,0,0,1.89.526,3.41,3.41,0,0,0,1.591-.4,3.355,3.355,0,0,0,1.25-1.108,2.827,2.827,0,0,0,.6-1.733,2.232,2.232,0,0,0-.142-.852A3.312,3.312,0,0,0,315.126,131a18.145,18.145,0,0,0-2.486-1.534l-1.108-.6a8.109,8.109,0,0,1-2.273-1.818,4.7,4.7,0,0,1-1.108-3.04,4.513,4.513,0,0,1,.625-2.231,4.416,4.416,0,0,1,1.591-1.591,4.25,4.25,0,0,1,2.187-.582,4.622,4.622,0,0,1,2.373.639,4.757,4.757,0,0,1,1.733,1.733,4.619,4.619,0,0,1,.639,2.372h-2.387A2.329,2.329,0,0,0,312.554,122a1.916,1.916,0,0,0-1.406.582,2.086,2.086,0,0,0-.611,1.463,2.274,2.274,0,0,0,.526,1.435,5.73,5.73,0,0,0,1.662,1.321q.17.114,1.023.568a18.543,18.543,0,0,1,2.7,1.648,6.189,6.189,0,0,1,2.1,2.869,5.271,5.271,0,0,1,.256,1.62A5.059,5.059,0,0,1,317.754,136.628Zm26.795,2.5h-3.092V124.554l-7.177,11.373-7.214-11.373.037,14.575h-3.092V113.88l10.269,16.268,10.269-16.268Zm16.144-2.5a5.949,5.949,0,0,1-2.045,1.818,5.448,5.448,0,0,1-2.7.682,6.178,6.178,0,0,1-4.375-1.818,5.841,5.841,0,0,1-1.349-1.989,6.191,6.191,0,0,1-.469-2.387v-1.165h2.387v1.165a3.651,3.651,0,0,0,.512,1.889,3.952,3.952,0,0,0,1.378,1.392,3.57,3.57,0,0,0,1.89.526,3.411,3.411,0,0,0,1.591-.4,3.356,3.356,0,0,0,1.25-1.108,2.827,2.827,0,0,0,.6-1.733,2.238,2.238,0,0,0-.142-.852A3.311,3.311,0,0,0,358.065,131a18.125,18.125,0,0,0-2.486-1.534l-1.109-.6a8.113,8.113,0,0,1-2.272-1.818,4.7,4.7,0,0,1-1.108-3.04,4.514,4.514,0,0,1,.625-2.231,4.419,4.419,0,0,1,1.591-1.591,4.251,4.251,0,0,1,2.187-.582,4.622,4.622,0,0,1,2.373.639,4.758,4.758,0,0,1,1.733,1.733,4.621,4.621,0,0,1,.639,2.372h-2.386A2.329,2.329,0,0,0,355.493,122a1.917,1.917,0,0,0-1.406.582,2.087,2.087,0,0,0-.611,1.463,2.274,2.274,0,0,0,.526,1.435,5.73,5.73,0,0,0,1.662,1.321q.17.114,1.023.568a18.543,18.543,0,0,1,2.7,1.648,6.187,6.187,0,0,1,2.1,2.869,5.263,5.263,0,0,1,.256,1.62A5.057,5.057,0,0,1,360.693,136.628Z" transform="translate(-294.023 -108.83)"/></g><path class="a" d="M295.607,242.509a2.05,2.05,0,0,1-.673-.45,1.949,1.949,0,0,1-.45-.663,2.066,2.066,0,0,1-.156-.8v-.389h.8v.389a1.215,1.215,0,0,0,.171.63,1.315,1.315,0,0,0,.459.465,1.192,1.192,0,0,0,.63.175,1.138,1.138,0,0,0,.531-.133,1.121,1.121,0,0,0,.417-.37.942.942,0,0,0,.2-.578.748.748,0,0,0-.047-.284,1.1,1.1,0,0,0-.384-.55,6.016,6.016,0,0,0-.829-.512l-.37-.2a2.7,2.7,0,0,1-.758-.607,1.568,1.568,0,0,1-.37-1.014,1.506,1.506,0,0,1,.208-.744,1.473,1.473,0,0,1,.531-.53,1.416,1.416,0,0,1,.73-.194,1.54,1.54,0,0,1,.791.213,1.586,1.586,0,0,1,.578.578,1.541,1.541,0,0,1,.214.791h-.8a.777.777,0,0,0-.786-.787.64.64,0,0,0-.469.194.7.7,0,0,0-.2.488.758.758,0,0,0,.175.478,1.914,1.914,0,0,0,.554.441q.057.038.341.19a6.18,6.18,0,0,1,.9.55,2.064,2.064,0,0,1,.7.957,1.759,1.759,0,0,1,.085.54,1.688,1.688,0,0,1-.351,1.043,1.986,1.986,0,0,1-.682.606,1.817,1.817,0,0,1-.9.228A2.047,2.047,0,0,1,295.607,242.509Z" transform="translate(-14.817 -107.909)"/><path class="a" d="M309.715,236.184l2.644,4.189L315,236.184v6.5h-.8v-3.753l-1.848,2.929-1.858-2.929.009,3.753h-.8Z" transform="translate(-25.352 -107.93)"/><path class="a" d="M331.15,236.154l2.322,6.511h-.8l-.313-.863h-2.426l-.313.863h-.8Zm.929,4.852-.929-2.616-.929,2.616Z" transform="translate(-38.437 -107.909)"/><path class="a" d="M346.438,236.184h1.27a2.362,2.362,0,0,1,1.213.327,2.446,2.446,0,0,1,.886.881,2.338,2.338,0,0,1,.327,1.208,2.372,2.372,0,0,1-.3,1.166,2.444,2.444,0,0,1-.8.872l1.1,2.047h-.9l-.929-1.735a2.462,2.462,0,0,1-.6.076h-.474v1.659h-.8Zm1.27,4.047a1.6,1.6,0,0,0,.82-.218,1.622,1.622,0,0,0,.81-1.412,1.582,1.582,0,0,0-.218-.81,1.622,1.622,0,0,0-1.412-.81h-.474v3.251Z" transform="translate(-50.494 -107.93)"/><path class="a" d="M361.472,236.98h-1.45v-.8h3.7v.8h-1.45v5.706h-.8Z" transform="translate(-59.794 -107.93)"/><path class="a" d="M382.289,236.184l2.644,4.189,2.645-4.189v6.5h-.8v-3.753l-1.849,2.929-1.857-2.929.009,3.753h-.8Z" transform="translate(-75.038 -107.93)"/><path class="a" d="M401.943,236.184h3.7v.8h-2.9v3.251h2.1v.8h-2.1v.863h2.9v.8h-3.7Z" transform="translate(-88.494 -107.93)"/><path class="a" d="M418.69,236.154l2.322,6.511h-.8l-.313-.863h-2.426l-.313.863h-.8Zm.928,4.852-.928-2.616-.929,2.616Z" transform="translate(-98.37 -107.909)"/><path class="a" d="M433.858,236.184h.8v5.705h2.9v.8h-3.7Z" transform="translate(-110.344 -107.93)"/><path class="a" d="M457.406,242.509a2.045,2.045,0,0,1-.673-.45,1.94,1.94,0,0,1-.45-.663,2.071,2.071,0,0,1-.156-.8v-.389h.8v.389a1.216,1.216,0,0,0,.171.63,1.318,1.318,0,0,0,.459.465,1.192,1.192,0,0,0,.63.175,1.136,1.136,0,0,0,.53-.133,1.117,1.117,0,0,0,.417-.37.944.944,0,0,0,.2-.578.743.743,0,0,0-.047-.284,1.1,1.1,0,0,0-.384-.55,6.022,6.022,0,0,0-.829-.512l-.369-.2a2.707,2.707,0,0,1-.758-.607,1.567,1.567,0,0,1-.37-1.014,1.5,1.5,0,0,1,.208-.744,1.475,1.475,0,0,1,.531-.53,1.417,1.417,0,0,1,.73-.194,1.541,1.541,0,0,1,.792.213,1.59,1.59,0,0,1,.578.578,1.543,1.543,0,0,1,.213.791h-.8a.777.777,0,0,0-.787-.787.641.641,0,0,0-.469.194.7.7,0,0,0-.2.488.76.76,0,0,0,.175.478,1.915,1.915,0,0,0,.555.441c.038.025.152.089.341.19a6.18,6.18,0,0,1,.9.55,2.067,2.067,0,0,1,.7.957,1.759,1.759,0,0,1,.085.54,1.688,1.688,0,0,1-.351,1.043,1.985,1.985,0,0,1-.683.606,1.815,1.815,0,0,1-.9.228A2.045,2.045,0,0,1,457.406,242.509Z" transform="translate(-125.59 -107.909)"/><path class="a" d="M471.512,236.184h3.7v.8h-2.9v3.251h2.1v.8h-2.1v.863h2.9v.8h-3.7Z" transform="translate(-136.124 -107.93)"/><path class="a" d="M486.419,236.184h1.27a2.362,2.362,0,0,1,1.213.327,2.444,2.444,0,0,1,.886.881,2.338,2.338,0,0,1,.327,1.208,2.375,2.375,0,0,1-.3,1.166,2.443,2.443,0,0,1-.8.872l1.1,2.047h-.9l-.929-1.735a2.462,2.462,0,0,1-.6.076h-.474v1.659h-.8Zm1.27,4.047a1.6,1.6,0,0,0,.82-.218,1.623,1.623,0,0,0,.81-1.412,1.582,1.582,0,0,0-.218-.81,1.622,1.622,0,0,0-1.412-.81h-.474v3.251Z" transform="translate(-146.329 -107.93)"/><path class="a" d="M499.311,236.184h.8l1.526,4.274,1.526-4.274h.8l-2.322,6.511Z" transform="translate(-155.156 -107.93)"/><path class="a" d="M516.56,236.184h.8v6.5h-.8Z" transform="translate(-166.965 -107.93)"/><path class="a" d="M523.263,242.254a3.181,3.181,0,0,1-1.654-2.819,3.146,3.146,0,0,1,.446-1.659,3.208,3.208,0,0,1,1.213-1.166,3.47,3.47,0,0,1,1.715-.426v.8a2.714,2.714,0,0,0-1.327.322,2.373,2.373,0,0,0-.919.881,2.517,2.517,0,0,0,0,2.507,2.356,2.356,0,0,0,.924.881,2.722,2.722,0,0,0,1.317.318v.8A3.466,3.466,0,0,1,523.263,242.254Z" transform="translate(-170.422 -107.93)"/><path class="a" d="M535.192,236.184h3.7v.8h-2.9v3.251h2.1v.8h-2.1v.863h2.9v.8h-3.7Z" transform="translate(-179.721 -107.93)"/><ellipse class="a" cx="3.879" cy="3.879" rx="3.879" ry="3.879" transform="translate(315.533 78.538)"/></g></svg>